<svg width="32" height="27" viewBox="0 0 32 27" fill="none" xmlns="http://www.w3.org/2000/svg">
<g filter="url(#filter0_d)">
<g clip-path="url(#clip0)">
<path fill-rule="evenodd" clip-rule="evenodd" d="M25.3625 14.7577C25.3625 14.7577 27.3029 16.6741 27.7829 17.5609C27.7922 17.5736 27.7995 17.5878 27.8045 17.6029C28.0001 17.9305 28.0481 18.1873 27.9521 18.3769C27.7901 18.6901 27.2417 18.8473 27.0557 18.8605H23.6261C23.3873 18.8605 22.8905 18.7981 22.2857 18.3805C21.8237 18.0577 21.3641 17.5261 20.9189 17.0065C20.2541 16.2349 19.6793 15.5653 19.0973 15.5653C19.0238 15.5651 18.9508 15.5773 18.8813 15.6013C18.4409 15.7405 17.8817 16.3681 17.8817 18.0397C17.8817 18.5629 17.4689 18.8605 17.1797 18.8605H15.6089C15.0737 18.8605 12.2873 18.6733 9.81651 16.0681C6.78891 12.8785 4.06971 6.48005 4.04331 6.42365C3.87411 6.00965 4.22931 5.78405 4.61331 5.78405H8.07651C8.54091 5.78405 8.69211 6.06485 8.79771 6.31685C8.92011 6.60605 9.37371 7.76285 10.1177 9.06245C11.3225 11.1768 12.0629 12.0373 12.6545 12.0373C12.7657 12.0376 12.8749 12.0086 12.9713 11.9533C13.7441 11.5285 13.6001 8.76845 13.5641 8.19965C13.5641 8.08925 13.5629 6.96725 13.1669 6.42485C12.8837 6.03605 12.4013 5.88485 12.1097 5.82965C12.1877 5.71685 12.3533 5.54405 12.5657 5.44205C13.0949 5.17805 14.0513 5.13965 15.0005 5.13965H15.5273C16.5569 5.15405 16.8233 5.22005 17.1977 5.31485C17.9513 5.49485 17.9657 5.98325 17.8997 7.64645C17.8805 8.12165 17.8601 8.65685 17.8601 9.28685C17.8601 9.42125 17.8541 9.57125 17.8541 9.72365C17.8313 10.5768 17.8013 11.5381 18.4037 11.9329C18.4818 11.9815 18.5721 12.0073 18.6641 12.0072C18.8729 12.0072 19.4981 12.0072 21.1937 9.09725C21.9377 7.81205 22.5137 6.29645 22.5533 6.18245C22.5869 6.11885 22.6877 5.94005 22.8101 5.86805C22.8972 5.82172 22.9947 5.79858 23.0933 5.80085H27.1673C27.6113 5.80085 27.9125 5.86805 27.9713 6.03605C28.0697 6.30845 27.9521 7.14005 26.0921 9.65525C25.7789 10.074 25.5041 10.4365 25.2629 10.7533C23.5769 12.9661 23.5769 13.0777 25.3625 14.7577Z" fill="white"/>
</g>
</g>
<defs>
<filter id="filter0_d" x="0" y="0" width="32" height="32" filterUnits="userSpaceOnUse" color-interpolation-filters="sRGB">
<feFlood flood-opacity="0" result="BackgroundImageFix"/>
<feColorMatrix in="SourceAlpha" type="matrix" values="0 0 0 0 0 0 0 0 0 0 0 0 0 0 0 0 0 0 127 0"/>
<feOffset dy="4"/>
<feGaussianBlur stdDeviation="2"/>
<feColorMatrix type="matrix" values="0 0 0 0 0 0 0 0 0 0 0 0 0 0 0 0 0 0 0.25 0"/>
<feBlend mode="normal" in2="BackgroundImageFix" result="effect1_dropShadow"/>
<feBlend mode="normal" in="SourceGraphic" in2="effect1_dropShadow" result="shape"/>
</filter>
<clipPath id="clip0">
<rect x="4" width="24" height="24" fill="white"/>
</clipPath>
</defs>
</svg>
